<?xml version="1.0" standalone="no"?>
<!DOCTYPE svg PUBLIC "-//W3C//DTD SVG 20010904//EN"
 "http://www.w3.org/TR/2001/REC-SVG-20010904/DTD/svg10.dtd">
<svg version="1.0" xmlns="http://www.w3.org/2000/svg"
 width="118.000000pt" height="118.000000pt" viewBox="0 0 118.000000 118.000000"
 preserveAspectRatio="xMidYMid meet">
<metadata>
Created by potrace 1.11, written by Peter Selinger 2001-2013
</metadata>
<g transform="translate(0.000000,118.000000) scale(0.100000,-0.100000)"
fill="#000000" stroke="none">
<path d="M270 824 c0 -3 36 -57 80 -120 44 -62 80 -118 80 -124 0 -6 -36 -62
-80 -124 -44 -63 -80 -117 -80 -120 0 -3 30 -6 68 -5 l67 0 83 119 c45 65 82
124 82 130 0 6 -37 65 -82 130 l-83 119 -67 1 c-38 0 -68 -3 -68 -6z"/>
<path d="M528 778 l39 -53 107 -3 106 -3 0 -139 0 -139 -106 -3 -107 -3 -39
-53 -40 -53 172 3 172 3 29 33 30 34 -3 185 -3 185 -33 29 -32 29 -166 0 -165
0 39 -52z"/>
</g>
</svg>
